<svg xmlns="http://www.w3.org/2000/svg" xmlns:xlink="http://www.w3.org/1999/xlink" width="1000" zoomAndPan="magnify" viewBox="0 0 750 749.999995" height="1000" preserveAspectRatio="xMidYMid meet" version="1.0"><defs><clipPath id="603ac6867f"><path d="M 132.152344 228 L 226 228 L 226 332 L 132.152344 332 Z M 132.152344 228 " clip-rule="nonzero"/></clipPath><clipPath id="8e97eb9edb"><path d="M 201 142.074219 L 294 142.074219 L 294 261 L 201 261 Z M 201 142.074219 " clip-rule="nonzero"/></clipPath><clipPath id="633104a20a"><path d="M 179 262.21875 L 422 262.21875 L 422 458.894531 L 179 458.894531 Z M 179 262.21875 " clip-rule="nonzero"/></clipPath></defs><path fill="currentColor" d="M 482.0625 548.433594 L 665.761719 732.070312 C 683.949219 750.25 713.484375 750.246094 731.671875 732.058594 C 749.855469 713.863281 749.847656 684.328125 731.660156 666.140625 L 548.085938 482.632812 C 585.015625 432.40625 606.84375 370.375 606.84375 303.28125 C 606.84375 135.894531 470.949219 0 303.5625 0 C 136.175781 0 0.28125 135.894531 0.28125 303.28125 C 0.28125 470.671875 136.175781 606.566406 303.5625 606.566406 C 370.269531 606.566406 431.96875 584.988281 482.0625 548.433594 Z M 303.5625 93.214844 C 419.503906 93.214844 513.636719 187.34375 513.636719 303.28125 C 513.636719 419.222656 419.503906 513.355469 303.5625 513.355469 C 187.621094 513.355469 93.496094 419.222656 93.496094 303.28125 C 93.496094 187.34375 187.621094 93.214844 303.5625 93.214844 Z M 303.5625 93.214844 " fill-opacity="1" fill-rule="evenodd"/><g clip-path="url(#603ac6867f)"><path fill="currentColor" d="M 191.84375 331.023438 C 192.601562 330.945312 193.359375 330.871094 194.113281 330.835938 C 202.371094 329.734375 209.644531 325.726562 215.210938 319.566406 C 219.71875 314.652344 222.671875 308.714844 224.375 301.757812 C 225.8125 296.3125 226.078125 290.226562 225.171875 284.214844 C 223.808594 272.191406 219.074219 260.847656 211.003906 250.867188 C 208.46875 247.691406 205.550781 244.515625 202.257812 241.753906 C 194.910156 235.515625 187.375 231.960938 179.234375 229.996094 C 173.855469 228.9375 168.855469 228.558594 163.628906 229.390625 C 155.375 230.828125 148.445312 234.457031 142.875 240.582031 C 138.371094 245.535156 135.113281 252.226562 133.824219 259.5625 C 132.992188 263.417969 132.574219 267.238281 132.878906 271.019531 L 132.953125 272.152344 C 133.066406 273.289062 133.140625 274.421875 133.257812 275.554688 L 133.332031 276.652344 C 134.429688 285.3125 137.382812 293.402344 141.816406 301 C 145.335938 306.785156 149.617188 312.117188 154.542969 316.652344 C 161.507812 322.894531 169.082031 327.203125 177.226562 329.171875 C 182.335938 331.023438 187.300781 331.363281 191.84375 331.023438 " fill-opacity="1" fill-rule="nonzero"/></g><g clip-path="url(#8e97eb9edb)"><path fill="currentColor" d="M 204.417969 215.402344 C 206.691406 224.476562 210.476562 232.414062 215.398438 239.222656 C 220.320312 246.027344 225.625 250.941406 232.0625 254.722656 C 237.363281 258.125 243.046875 260.015625 249.105469 260.394531 L 252.132812 260.394531 C 258.195312 260.394531 263.875 258.882812 268.796875 255.480469 C 273.722656 252.832031 278.265625 248.671875 282.054688 243.757812 C 287.355469 236.953125 290.761719 228.636719 292.28125 218.804688 C 292.65625 214.644531 293.035156 210.484375 293.035156 205.949219 C 293.035156 202.546875 292.65625 199.144531 292.28125 195.738281 C 291.519531 189.691406 290.007812 184.019531 287.734375 178.347656 C 283.945312 168.894531 278.644531 160.953125 271.828125 154.90625 C 266.902344 150.367188 261.601562 146.964844 255.921875 145.074219 C 248.726562 142.425781 241.53125 142.050781 234.335938 143.9375 C 227.519531 145.449219 221.460938 149.230469 216.15625 154.90625 C 211.613281 159.820312 208.582031 165.113281 205.929688 171.539062 C 203.28125 179.101562 201.765625 187.042969 201.765625 196.117188 C 201.765625 197.628906 202.144531 199.144531 202.144531 201.410156 C 202.523438 205.949219 203.28125 210.863281 204.417969 215.402344 " fill-opacity="1" fill-rule="nonzero"/></g><path fill="currentColor" d="M 311.972656 233.171875 C 314.621094 240.734375 318.410156 246.785156 323.710938 251.699219 C 330.527344 258.125 338.484375 261.90625 347.570312 262.285156 L 349.84375 262.285156 C 354.386719 262.285156 358.554688 261.148438 363.097656 261.148438 C 369.535156 258.503906 375.21875 254.722656 380.898438 249.429688 C 386.578125 243.757812 391.121094 237.332031 394.53125 230.148438 C 399.457031 219.9375 402.105469 209.351562 402.484375 198.007812 C 402.484375 191.582031 402.105469 185.152344 400.589844 179.480469 C 398.695312 171.539062 396.046875 165.113281 391.882812 159.441406 C 385.0625 149.988281 375.972656 144.695312 365.371094 143.183594 C 364.992188 143.183594 364.992188 143.183594 364.613281 143.183594 L 355.902344 143.183594 C 350.980469 143.9375 345.679688 145.449219 341.132812 148.097656 C 335.070312 151.5 329.394531 156.417969 324.46875 162.464844 C 319.167969 168.894531 315.378906 176.457031 312.351562 184.773438 C 309.699219 192.335938 308.5625 200.277344 308.183594 208.21875 C 308.183594 211.621094 308.183594 215.023438 308.5625 218.425781 C 309.320312 223.71875 310.457031 228.636719 311.972656 233.171875 " fill-opacity="1" fill-rule="nonzero"/><g clip-path="url(#633104a20a)"><path fill="currentColor" d="M 407.371094 360.96875 C 402.445312 353.785156 396.386719 346.980469 389.191406 340.929688 C 384.269531 336.390625 379.34375 331.476562 375.179688 326.183594 C 370.632812 320.511719 366.46875 314.460938 363.058594 309.167969 L 360.410156 305.007812 C 357.757812 300.847656 355.105469 297.070312 352.457031 292.910156 C 348.289062 286.859375 344.503906 281.945312 340.335938 278.164062 C 333.140625 271.359375 324.8125 266.820312 315.34375 264.554688 C 309.28125 263.039062 302.84375 262.664062 296.785156 262.664062 C 291.105469 262.664062 285.421875 263.796875 280.121094 266.066406 C 273.683594 268.710938 268 272.871094 261.945312 278.542969 C 258.535156 281.945312 254.75 286.105469 250.960938 291.019531 C 247.175781 295.933594 243.765625 300.847656 240.359375 305.765625 L 238.460938 308.789062 C 233.917969 314.839844 229.375 321.644531 224.070312 327.695312 C 219.527344 332.988281 215.363281 337.148438 211.195312 340.929688 C 205.894531 345.464844 200.59375 350.761719 196.425781 356.429688 C 190.367188 364.371094 185.820312 373.066406 182.792969 381.765625 C 180.898438 387.8125 179.761719 393.863281 179.382812 399.914062 C 179.007812 405.207031 179.382812 410.878906 180.519531 415.792969 C 183.550781 429.78125 190.746094 441.125 202.484375 449.441406 C 209.300781 454.359375 216.875 457.382812 225.585938 458.136719 C 226.722656 458.515625 227.480469 458.515625 228.617188 458.515625 L 234.296875 458.515625 C 237.707031 458.515625 241.113281 458.136719 243.765625 457.761719 C 251.339844 456.25 258.914062 454.359375 265.730469 452.46875 L 266.109375 452.46875 C 272.546875 450.953125 278.988281 449.066406 285.421875 447.929688 C 288.074219 447.550781 291.484375 446.796875 294.890625 446.796875 C 299.433594 446.796875 303.601562 446.796875 307.390625 447.175781 C 312.691406 447.929688 318.75 449.066406 325.1875 450.578125 C 328.21875 451.332031 331.625 452.46875 334.65625 453.222656 C 338.820312 454.359375 343.367188 455.492188 347.910156 456.625 C 352.457031 457.761719 357.378906 458.894531 362.679688 458.894531 L 371.769531 458.894531 C 372.527344 458.894531 372.90625 458.515625 373.664062 457.382812 C 375.9375 457.382812 378.589844 457.003906 380.859375 456.25 C 386.917969 454.734375 392.980469 452.089844 398.660156 447.929688 C 406.234375 442.636719 412.292969 435.832031 416.082031 427.890625 C 420.246094 419.195312 422.140625 410.121094 421.761719 399.914062 C 421.382812 394.242188 420.246094 387.8125 417.972656 381.765625 C 415.703125 374.578125 412.292969 367.773438 407.371094 360.96875 " fill-opacity="1" fill-rule="nonzero"/></g><path fill="currentColor" d="M 473.605469 259.5625 C 472.320312 252.226562 469.0625 245.535156 464.519531 240.582031 C 458.953125 234.457031 452.058594 230.828125 443.800781 229.390625 C 438.539062 228.558594 433.574219 228.9375 428.160156 229.996094 C 420.019531 231.960938 412.523438 235.515625 405.175781 241.753906 C 401.878906 244.515625 398.960938 247.691406 396.425781 250.867188 C 388.359375 260.847656 383.621094 272.191406 382.222656 284.214844 C 381.351562 290.226562 381.617188 296.3125 383.058594 301.757812 C 384.761719 308.714844 387.675781 314.652344 392.21875 319.566406 C 397.789062 325.726562 405.058594 329.734375 413.316406 330.835938 C 414.074219 330.871094 414.832031 330.945312 415.585938 331.023438 C 420.132812 331.363281 425.09375 331.023438 430.167969 329.171875 C 438.3125 327.203125 445.886719 322.894531 452.890625 316.652344 C 457.8125 312.117188 462.058594 306.785156 465.578125 301 C 470.007812 293.402344 472.964844 285.3125 474.0625 276.652344 L 474.175781 275.554688 C 474.25 274.421875 474.363281 273.289062 474.441406 272.152344 L 474.554688 271.019531 C 474.855469 267.238281 474.402344 263.417969 473.605469 259.5625 " fill-opacity="1" fill-rule="nonzero"/></svg>