<svg xmlns="http://www.w3.org/2000/svg" xmlns:xlink="http://www.w3.org/1999/xlink" width="1000" zoomAndPan="magnify" viewBox="0 0 750 749.999995" height="1000" preserveAspectRatio="xMidYMid meet" version="1.0"><defs><clipPath id="eff8e17522"><path d="M 247 41.25 L 746 41.25 L 746 632 L 247 632 Z M 247 41.25 " clip-rule="nonzero"/></clipPath><clipPath id="9582b682d9"><path d="M 33.128906 220.628906 L 489.515625 220.628906 L 489.515625 654.128906 L 33.128906 654.128906 Z M 33.128906 220.628906 " clip-rule="nonzero"/></clipPath><clipPath id="3885fd6cca"><path d="M 42 578 L 540 578 L 540 680 L 42 680 Z M 42 578 " clip-rule="nonzero"/></clipPath><clipPath id="bfe40f368e"><path d="M 42.882812 621.53125 L 534.257812 578.519531 L 539.363281 636.855469 L 47.988281 679.863281 Z M 42.882812 621.53125 " clip-rule="nonzero"/></clipPath><clipPath id="a1f1256ec0"><path d="M 52 540 L 161 540 L 161 650 L 52 650 Z M 52 540 " clip-rule="nonzero"/></clipPath><clipPath id="a2067961d0"><path d="M 52.183594 550.382812 L 151.105469 540.527344 L 160.960938 639.445312 L 62.039062 649.304688 Z M 52.183594 550.382812 " clip-rule="nonzero"/></clipPath></defs><g clip-path="url(#eff8e17522)"><path fill="currentColor" d="M 263.96875 40.753906 L 247.753906 127.625 L 508.203125 103.136719 L 514.160156 166.839844 L 685.257812 198.613281 L 619.398438 552.71875 L 549.074219 539.644531 L 556.023438 613.609375 L 652.328125 631.648438 L 745.652344 130.4375 Z M 263.96875 40.753906 " fill-opacity="1" fill-rule="nonzero"/></g><path fill="currentColor" d="M 540.800781 450.621094 L 545.269531 499.269531 L 578.527344 505.722656 Z M 540.800781 450.621094 " fill-opacity="1" fill-rule="nonzero"/><path fill="currentColor" d="M 5.339844 166.839844 L 52.996094 674.503906 L 540.800781 628.667969 L 493.3125 121.171875 Z M 93.039062 598.882812 L 59.449219 240.308594 L 453.929688 203.410156 L 487.519531 561.820312 Z M 93.039062 598.882812 " fill-opacity="1" fill-rule="nonzero"/><path fill="currentColor" d="M 318.90625 508.207031 L 230.046875 434.570312 L 130.765625 554.539062 L 435.398438 527.898438 L 356.632812 462.535156 Z M 318.90625 508.207031 " fill-opacity="1" fill-rule="nonzero"/><g clip-path="url(#9582b682d9)"><path fill="currentColor" d="M 279.09375 220.609375 L 279.285156 220.621094 C 284.476562 234.980469 287.34375 241.335938 287.890625 239.691406 C 297.140625 231.035156 302.785156 226.074219 304.828125 224.8125 C 308.390625 223.085938 310.257812 222.945312 310.421875 224.382812 C 312.09375 230.722656 312.511719 244.226562 311.675781 264.898438 C 310.910156 277.625 308.363281 291.015625 304.03125 305.066406 C 303.84375 307.285156 304.625 309.726562 306.371094 312.386719 L 367.9375 354.867188 C 372.148438 359.300781 375.453125 363.410156 377.847656 367.191406 C 391.15625 397.203125 399.003906 412.113281 401.386719 411.917969 L 478.101562 453.207031 C 484.902344 457.144531 488.636719 462.0625 489.304688 467.964844 C 485.269531 479.183594 477.511719 491.039062 466.027344 503.527344 C 451.476562 518.152344 435.125 530.207031 416.972656 539.6875 C 397.457031 544.394531 357.285156 544.535156 296.464844 540.113281 C 294.0625 570.714844 288.457031 598.355469 279.652344 623.039062 C 275.019531 636.257812 267.148438 646.625 256.035156 654.136719 C 158.570312 644.53125 84.449219 593.890625 33.671875 502.210938 C 45.15625 497.664062 68.289062 479.800781 103.078125 448.621094 C 123.582031 429.191406 145.6875 405.644531 169.390625 377.988281 C 187.882812 357.6875 211.703125 326.980469 240.84375 285.867188 C 256.394531 262.863281 269.144531 241.109375 279.09375 220.609375 " fill-opacity="1" fill-rule="nonzero"/></g><g clip-path="url(#3885fd6cca)"><g clip-path="url(#bfe40f368e)"><path fill="currentColor" d="M 42.882812 621.53125 L 534.160156 578.53125 L 539.265625 636.863281 L 47.988281 679.863281 Z M 42.882812 621.53125 " fill-opacity="1" fill-rule="nonzero"/></g></g><g clip-path="url(#a1f1256ec0)"><g clip-path="url(#a2067961d0)"><path fill="currentColor" d="M 52.183594 550.382812 L 151.105469 540.527344 L 160.960938 639.445312 L 62.039062 649.304688 Z M 52.183594 550.382812 " fill-opacity="1" fill-rule="nonzero"/></g></g></svg>