<svg xmlns="http://www.w3.org/2000/svg" xmlns:xlink="http://www.w3.org/1999/xlink" width="1000" zoomAndPan="magnify" viewBox="0 0 750 749.999995" height="1000" preserveAspectRatio="xMidYMid meet" version="1.0"><defs><clipPath id="4eefed991e"><path d="M 343.144531 178.398438 L 406.855469 178.398438 L 406.855469 242.113281 L 343.144531 242.113281 Z M 343.144531 178.398438 " clip-rule="nonzero"/></clipPath><clipPath id="6f718908cf"><path d="M 375 178.398438 C 357.40625 178.398438 343.144531 192.660156 343.144531 210.253906 C 343.144531 227.847656 357.40625 242.113281 375 242.113281 C 392.59375 242.113281 406.855469 227.847656 406.855469 210.253906 C 406.855469 192.660156 392.59375 178.398438 375 178.398438 Z M 375 178.398438 " clip-rule="nonzero"/></clipPath><clipPath id="3a6282f7ff"><path d="M 0 17.34375 L 750 17.34375 L 750 301 L 0 301 Z M 0 17.34375 " clip-rule="nonzero"/></clipPath><clipPath id="31bb800950"><path d="M 50 656 L 698 656 L 698 732.84375 L 50 732.84375 Z M 50 656 " clip-rule="nonzero"/></clipPath></defs><g clip-path="url(#4eefed991e)"><g clip-path="url(#6f718908cf)"><path fill="currentColor" d="M 343.144531 178.398438 L 406.855469 178.398438 L 406.855469 242.113281 L 343.144531 242.113281 Z M 343.144531 178.398438 " fill-opacity="1" fill-rule="nonzero"/></g></g><path fill="currentColor" d="M 496.257812 488.945312 L 496.257812 638.316406 L 655.300781 638.316406 L 655.300781 637.101562 L 656.515625 637.101562 L 656.515625 299.195312 L 373.785156 158.929688 L 92.269531 299.195312 L 92.269531 638.46875 L 251.164062 638.46875 L 251.164062 449.019531 C 251.164062 381.015625 307.011719 326.367188 375 326.367188 C 396.398438 326.367188 416.582031 331.832031 434.035156 341.394531 C 467.574219 359.761719 491.398438 393.460938 496.410156 433.082031 C 497.320312 442.644531 496.710938 448.867188 496.257812 448.867188 Z M 413.851562 287.503906 L 332.507812 287.503906 C 331.292969 298.433594 322.792969 306.933594 311.867188 306.933594 C 300.941406 306.933594 291.226562 297.21875 291.226562 286.289062 C 291.226562 279.003906 294.871094 272.933594 299.726562 269.289062 C 294.871094 265.644531 291.226562 259.574219 291.226562 252.289062 C 291.226562 241.359375 300.941406 231.640625 311.867188 231.640625 C 322.792969 231.640625 332.507812 241.359375 332.507812 252.289062 C 332.507812 253.5 332.507812 253.5 332.507812 253.5 L 413.851562 253.5 C 413.851562 252.289062 413.851562 252.289062 413.851562 252.289062 C 413.851562 241.359375 423.5625 231.640625 434.488281 231.640625 C 445.417969 231.640625 455.128906 241.359375 455.128906 252.289062 C 455.128906 259.574219 451.488281 265.644531 446.632812 269.289062 C 452.703125 272.933594 455.128906 279.003906 455.128906 286.289062 C 455.128906 297.21875 445.417969 306.933594 434.488281 306.933594 C 423.5625 306.933594 415.066406 298.433594 413.851562 287.503906 Z M 413.851562 287.503906 " fill-opacity="1" fill-rule="nonzero"/><g clip-path="url(#3a6282f7ff)"><path fill="currentColor" d="M 656.515625 157.109375 L 656.363281 157.261719 L 375 17.453125 L 373.785156 17.453125 L 0 203.105469 L 47.347656 300.257812 L 92.269531 277.941406 L 373.785156 137.679688 L 656.515625 277.941406 L 701.4375 300.257812 L 725.109375 251.679688 L 750 201.890625 Z M 656.515625 157.109375 " fill-opacity="1" fill-rule="nonzero"/></g><g clip-path="url(#31bb800950)"><path fill="currentColor" d="M 655.300781 656.226562 L 50.992188 656.226562 L 50.992188 732.734375 L 697.792969 732.734375 L 697.792969 656.226562 Z M 655.300781 656.226562 " fill-opacity="1" fill-rule="nonzero"/></g></svg>