<svg xmlns="http://www.w3.org/2000/svg" xmlns:xlink="http://www.w3.org/1999/xlink" width="2000" zoomAndPan="magnify" viewBox="0 0 1500 1499.999933" height="2000" preserveAspectRatio="xMidYMid meet" version="1.0"><defs><g/><clipPath id="052b42d9ea"><path d="M 54 177.394531 L 1446 177.394531 L 1446 1322.644531 L 54 1322.644531 Z M 54 177.394531 " clip-rule="nonzero"/></clipPath></defs><g clip-path="url(#052b42d9ea)"><path fill="currentColor" d="M 632.691406 177.394531 L 691.992188 177.394531 C 702.6875 178.609375 713.359375 179.757812 724 180.84375 C 800.667969 188.671875 874.332031 216.628906 934.101562 266.613281 C 939.613281 271.214844 945.734375 278.136719 952.019531 283.511719 C 952.734375 284.117188 953.570312 284.441406 954.527344 284.476562 C 965.03125 284.808594 976.390625 284.0625 986.09375 286.820312 C 1020.609375 296.664062 1044.816406 326.355469 1049.144531 361.726562 C 1049.273438 362.792969 1049.273438 369.988281 1049.144531 383.316406 C 1048.886719 408.84375 1060.667969 428.253906 1084.488281 441.542969 C 1110.898438 456.265625 1136.425781 467.46875 1161.074219 475.148438 C 1212.976562 491.34375 1265.328125 505.917969 1318.132812 518.875 C 1341.640625 524.628906 1358.144531 527.414062 1367.644531 527.230469 C 1397.253906 526.675781 1425.070312 529.847656 1436.980469 559.925781 C 1440.308594 568.308594 1443.210938 584.710938 1445.691406 609.140625 L 1445.691406 635.882812 C 1442.851562 666.703125 1431.082031 684.679688 1414.679688 707.398438 C 1414.144531 708.132812 1413.859375 708.96875 1413.824219 709.90625 C 1412.582031 750.160156 1406.324219 783.683594 1378.453125 813.320312 C 1364.363281 828.320312 1342.945312 839.789062 1323.839844 849.132812 C 1322.800781 849.644531 1321.9375 850.363281 1321.246094 851.285156 C 1320.554688 852.210938 1320.113281 853.238281 1319.925781 854.371094 C 1308.316406 922.113281 1254.394531 972.261719 1186.300781 980.007812 C 1172.789062 981.550781 1160.523438 983.949219 1145.992188 981.25 C 1142.003906 980.496094 1136.839844 980.042969 1130.5 979.898438 C 1123.085938 979.703125 1116.273438 977.445312 1109.601562 977.140625 C 1057.71875 974.90625 1008.785156 974.605469 960.84375 983.261719 C 896.964844 994.8125 819.277344 1036.914062 795.871094 1100.542969 C 793.554688 1106.828125 792.214844 1114.265625 791.847656 1122.847656 C 790.742188 1149.175781 790.550781 1168.832031 782.226562 1191.828125 C 765.535156 1237.796875 743.832031 1281.273438 717.109375 1322.261719 C 717.035156 1322.382812 716.929688 1322.464844 716.792969 1322.503906 C 716.660156 1322.546875 716.527344 1322.535156 716.398438 1322.476562 C 716.269531 1322.414062 716.179688 1322.320312 716.125 1322.1875 C 716.070312 1322.058594 716.066406 1321.925781 716.113281 1321.792969 C 736.875 1258.40625 755.042969 1193.894531 758.847656 1126.957031 C 759.601562 1113.5 761.042969 1103.21875 763.175781 1096.105469 C 776.492188 1051.632812 815.335938 1012.84375 854.011719 988.996094 C 889.46875 967.105469 929.523438 953.292969 974.183594 947.558594 C 1024.949219 941.050781 1072.292969 940.085938 1116.21875 944.664062 C 1141.527344 947.308594 1160.585938 948.347656 1173.398438 947.777344 C 1226.824219 945.464844 1282.320312 907.609375 1286.84375 850.980469 C 1287.15625 847.214844 1285.65625 846.257812 1282.347656 848.113281 C 1220.675781 882.769531 1140.949219 918.140625 1069.492188 908.574219 C 1043.136719 905.046875 1018.074219 897.417969 994.3125 885.691406 C 967 872.21875 947.003906 862.421875 934.320312 856.300781 C 885.578125 832.839844 825.726562 831.351562 779.109375 860.6875 C 778.90625 860.839844 778.683594 860.898438 778.429688 860.863281 C 778.179688 860.828125 777.980469 860.707031 777.828125 860.507812 C 777.675781 860.304688 777.617188 860.078125 777.652344 859.828125 C 777.6875 859.578125 777.804688 859.378906 778.007812 859.226562 C 826.582031 814.121094 899.640625 810.34375 957.339844 838.851562 C 991.195312 855.585938 1025.105469 873.671875 1057.71875 881.28125 C 1131.851562 898.511719 1214.445312 869.839844 1279.675781 834.964844 C 1299.304688 824.46875 1319.03125 814.121094 1338.863281 803.917969 C 1367.535156 789.167969 1381.789062 749.027344 1380.824219 719.140625 C 1380.601562 712.398438 1377.183594 706.414062 1370.566406 701.195312 C 1351.804688 686.398438 1331.90625 673.230469 1310.882812 661.6875 C 1297.125 654.132812 1287.007812 643.710938 1281.605469 628.769531 C 1268.121094 591.550781 1295.113281 576.332031 1320.917969 557.996094 C 1324.464844 555.480469 1324.113281 553.707031 1319.871094 552.675781 C 1258.628906 537.898438 1197.859375 520.824219 1137.558594 501.453125 C 1117.449219 494.980469 1097.050781 485.792969 1076.355469 473.882812 C 1040.679688 453.3125 1017.9375 431.894531 1017.800781 390.621094 C 1017.742188 374.796875 1017.714844 366.863281 1017.714844 366.828125 C 1013.03125 333.332031 987.253906 312.929688 953.261719 317.753906 C 952.15625 317.917969 951.882812 318.488281 952.433594 319.464844 C 955.007812 324.003906 955.789062 328.957031 954.777344 334.324219 C 954.722656 334.707031 954.785156 335.074219 954.96875 335.425781 L 955.960938 337.246094 C 956.054688 337.492188 956.054688 337.742188 955.964844 337.988281 C 955.875 338.238281 955.714844 338.425781 955.484375 338.558594 C 955.257812 338.6875 955.011719 338.726562 954.753906 338.675781 C 954.492188 338.628906 954.28125 338.5 954.117188 338.292969 C 916.761719 274.9375 836.839844 235.539062 767.503906 220.652344 C 727.527344 212.050781 695.6875 210.066406 655.519531 210.3125 C 637.324219 210.425781 622.398438 211.289062 610.746094 212.90625 C 582.941406 216.765625 555.914062 224.015625 529.667969 234.660156 C 523.878906 237.011719 514.257812 238.371094 500.804688 238.738281 C 487.515625 239.125 466.785156 236.007812 452.007812 238.324219 C 428.242188 242.054688 408.59375 252.863281 393.066406 270.746094 C 388.527344 275.984375 383.601562 283.859375 378.289062 294.375 C 367.480469 315.824219 357.144531 335.785156 339.800781 354.890625 C 333.644531 361.671875 323.078125 371.734375 308.097656 385.078125 C 268.636719 420.238281 229.839844 456.136719 191.703125 492.765625 C 171.332031 512.339844 112.71875 572.03125 150.433594 599.542969 C 170.484375 614.175781 186.546875 632.050781 198.625 653.167969 C 207.636719 668.855469 219.464844 692.675781 231.15625 709.21875 C 273.554688 769.347656 335.253906 822.089844 395.546875 863.582031 C 412.03125 874.882812 432.929688 886.792969 449.003906 893.246094 C 501.464844 914.253906 551.886719 883.707031 578.546875 838.960938 C 600.417969 802.257812 612.789062 760.460938 615.65625 713.574219 C 618.652344 664.664062 612.878906 616.820312 598.339844 570.046875 C 589.539062 541.667969 577.730469 507.710938 562.914062 468.175781 C 553.835938 443.929688 548.636719 418.035156 547.3125 390.484375 C 546.84375 380.804688 548.828125 370.742188 549.683594 360.433594 C 552.9375 322.332031 575.542969 285.167969 603.773438 259.941406 C 603.890625 259.839844 604.03125 259.785156 604.1875 259.78125 C 604.34375 259.78125 604.484375 259.828125 604.609375 259.925781 C 604.730469 260.019531 604.8125 260.144531 604.84375 260.296875 C 604.878906 260.453125 604.863281 260.597656 604.792969 260.738281 C 581.746094 304.355469 569.230469 358.417969 576.753906 407.632812 C 581.550781 438.839844 598.230469 478.925781 609.453125 513.582031 C 637.664062 600.683594 642.699219 689.183594 624.558594 779.078125 C 616.757812 817.789062 599.609375 859.777344 572.179688 887.152344 C 542.644531 916.652344 504.378906 928.203125 457.382812 921.808594 C 435.4375 918.832031 420.882812 914.308594 400.976562 902.703125 C 349.351562 872.558594 302.429688 835.191406 260.210938 790.601562 C 259.882812 790.257812 259.488281 790.019531 259.03125 789.886719 C 258.570312 789.757812 258.113281 789.75 257.648438 789.867188 C 257.1875 789.984375 256.785156 790.207031 256.445312 790.542969 C 256.105469 790.875 255.871094 791.273438 255.746094 791.734375 C 236.171875 863.839844 212.351562 935.078125 184.289062 1005.453125 C 145.5 1102.75 103.429688 1200.234375 55.238281 1293.257812 C 54.925781 1293.84375 54.585938 1293.863281 54.21875 1293.3125 C 54 1292.980469 53.988281 1292.578125 54.191406 1292.097656 C 114.980469 1139.914062 168.519531 983.8125 207.363281 824.488281 C 212.96875 801.492188 217.71875 778.820312 221.617188 756.472656 C 221.871094 755.019531 221.808594 753.574219 221.433594 752.140625 C 221.058594 750.707031 220.402344 749.414062 219.464844 748.257812 C 201.023438 725.675781 187.925781 700.835938 173.261719 675.417969 C 161.238281 654.574219 149 640.183594 131.824219 625.460938 C 122.597656 617.574219 116.71875 611.636719 114.179688 607.648438 C 103.539062 590.914062 105.441406 573.410156 109.851562 554.9375 C 116.136719 528.609375 139.957031 499.4375 159.117188 480.828125 C 201.664062 439.472656 244.929688 398.875 288.910156 359.027344 C 309.3125 340.554688 329.269531 320.8125 339.363281 300.027344 C 347.964844 282.242188 356.34375 263.027344 369.136719 248.96875 C 392.476562 223.273438 421.589844 208.328125 456.472656 204.136719 C 469.84375 202.539062 486.964844 205.324219 502.652344 204.9375 C 523.4375 204.441406 545.519531 193.304688 565.535156 188.230469 C 581.414062 184.1875 594.296875 181.6875 604.1875 180.730469 C 618.90625 179.316406 628.410156 178.203125 632.691406 177.394531 Z M 1408.253906 656.007812 C 1409.0625 653.269531 1409.917969 650.585938 1410.816406 647.957031 C 1411.828125 645.035156 1412.453125 642.324219 1412.691406 639.824219 C 1414.714844 619.917969 1413.34375 599.261719 1408.585938 577.847656 C 1407.070312 570.925781 1404.699219 565.054688 1397.308594 563.34375 C 1382.726562 559.980469 1368.472656 560.617188 1353.503906 559.511719 C 1344.238281 558.824219 1339.5 561.003906 1332.109375 565.660156 C 1319.316406 573.738281 1292.328125 589.703125 1291.144531 604.753906 C 1289.414062 626.460938 1298.484375 641.265625 1318.351562 649.171875 C 1328.203125 653.085938 1337.382812 652.605469 1345.894531 647.738281 C 1357.28125 641.203125 1354.496094 624.164062 1359.210938 613.082031 C 1366.847656 595.132812 1385.457031 596.648438 1392.621094 613.6875 C 1400.671875 632.738281 1397.007812 652.3125 1394.773438 672.992188 C 1394.730469 673.347656 1394.796875 673.683594 1394.96875 673.996094 C 1395.144531 674.3125 1395.390625 674.546875 1395.714844 674.703125 C 1396.039062 674.859375 1396.378906 674.90625 1396.730469 674.84375 C 1397.085938 674.785156 1397.386719 674.625 1397.640625 674.367188 C 1402.640625 669.316406 1406.175781 663.195312 1408.253906 656.007812 Z M 1375.980469 673.667969 C 1376.339844 673.679688 1376.695312 673.644531 1377.054688 673.5625 C 1377.410156 673.480469 1377.765625 673.355469 1378.121094 673.183594 C 1378.476562 673.011719 1378.828125 672.796875 1379.179688 672.535156 C 1379.527344 672.277344 1379.871094 671.972656 1380.210938 671.625 C 1380.550781 671.28125 1380.886719 670.890625 1381.210938 670.460938 C 1381.539062 670.03125 1381.859375 669.5625 1382.171875 669.054688 C 1382.484375 668.546875 1382.785156 668 1383.078125 667.417969 C 1383.371094 666.835938 1383.65625 666.21875 1383.925781 665.566406 C 1384.199219 664.914062 1384.457031 664.234375 1384.703125 663.519531 C 1384.953125 662.804688 1385.1875 662.066406 1385.40625 661.296875 C 1385.628906 660.527344 1385.835938 659.734375 1386.027344 658.917969 C 1386.21875 658.101562 1386.398438 657.265625 1386.558594 656.410156 C 1386.722656 655.554688 1386.867188 654.679688 1386.996094 653.792969 C 1387.128906 652.90625 1387.242188 652.003906 1387.335938 651.09375 C 1387.433594 650.179688 1387.511719 649.261719 1387.574219 648.335938 C 1387.636719 647.410156 1387.683594 646.484375 1387.710938 645.550781 C 1387.738281 644.621094 1387.75 643.691406 1387.742188 642.761719 C 1387.734375 641.832031 1387.707031 640.910156 1387.667969 639.996094 C 1387.625 639.082031 1387.5625 638.175781 1387.488281 637.28125 C 1387.410156 636.386719 1387.316406 635.507812 1387.207031 634.644531 C 1387.09375 633.777344 1386.96875 632.933594 1386.824219 632.105469 C 1386.679688 631.28125 1386.519531 630.476562 1386.34375 629.695312 C 1386.171875 628.914062 1385.980469 628.164062 1385.777344 627.4375 C 1385.570312 626.707031 1385.351562 626.011719 1385.121094 625.347656 C 1384.886719 624.679688 1384.640625 624.046875 1384.382812 623.449219 C 1384.125 622.847656 1383.855469 622.285156 1383.574219 621.761719 C 1383.292969 621.234375 1383.003906 620.746094 1382.703125 620.296875 C 1382.398438 619.851562 1382.089844 619.441406 1381.769531 619.078125 C 1381.453125 618.710938 1381.125 618.386719 1380.792969 618.105469 C 1380.460938 617.824219 1380.121094 617.589844 1379.777344 617.398438 C 1379.433594 617.207031 1379.085938 617.058594 1378.734375 616.957031 C 1378.382812 616.855469 1378.027344 616.796875 1377.671875 616.789062 C 1377.3125 616.777344 1376.957031 616.8125 1376.597656 616.894531 C 1376.242188 616.972656 1375.886719 617.101562 1375.53125 617.269531 C 1375.175781 617.441406 1374.824219 617.660156 1374.472656 617.917969 C 1374.125 618.179688 1373.78125 618.484375 1373.441406 618.828125 C 1373.101562 619.175781 1372.765625 619.5625 1372.4375 619.992188 C 1372.113281 620.421875 1371.792969 620.894531 1371.480469 621.402344 C 1371.167969 621.910156 1370.867188 622.457031 1370.574219 623.039062 C 1370.28125 623.621094 1369.996094 624.238281 1369.726562 624.890625 C 1369.453125 625.539062 1369.195312 626.222656 1368.949219 626.9375 C 1368.699219 627.648438 1368.464844 628.390625 1368.246094 629.160156 C 1368.023438 629.925781 1367.816406 630.71875 1367.625 631.535156 C 1367.433594 632.351562 1367.253906 633.1875 1367.09375 634.046875 C 1366.929688 634.902344 1366.785156 635.773438 1366.65625 636.664062 C 1366.523438 637.550781 1366.410156 638.449219 1366.316406 639.363281 C 1366.21875 640.273438 1366.140625 641.191406 1366.078125 642.117188 C 1366.015625 643.042969 1365.96875 643.972656 1365.941406 644.90625 C 1365.914062 645.835938 1365.902344 646.765625 1365.910156 647.695312 C 1365.917969 648.621094 1365.941406 649.542969 1365.984375 650.460938 C 1366.027344 651.375 1366.085938 652.28125 1366.164062 653.175781 C 1366.242188 654.070312 1366.335938 654.949219 1366.445312 655.8125 C 1366.558594 656.675781 1366.683594 657.523438 1366.828125 658.347656 C 1366.972656 659.175781 1367.132812 659.980469 1367.304688 660.757812 C 1367.480469 661.539062 1367.671875 662.292969 1367.875 663.019531 C 1368.082031 663.746094 1368.300781 664.441406 1368.53125 665.109375 C 1368.765625 665.773438 1369.011719 666.40625 1369.269531 667.007812 C 1369.527344 667.605469 1369.796875 668.167969 1370.078125 668.695312 C 1370.359375 669.222656 1370.648438 669.707031 1370.949219 670.15625 C 1371.253906 670.605469 1371.5625 671.011719 1371.878906 671.378906 C 1372.199219 671.746094 1372.527344 672.070312 1372.859375 672.347656 C 1373.191406 672.628906 1373.53125 672.867188 1373.875 673.058594 C 1374.21875 673.25 1374.566406 673.398438 1374.917969 673.5 C 1375.269531 673.601562 1375.625 673.65625 1375.980469 673.667969 Z M 1375.980469 673.667969 " fill-opacity="1" fill-rule="nonzero"/></g><path fill="currentColor" d="M 812.523438 475.066406 C 812.339844 475.261719 812.203125 475.488281 812.113281 475.738281 C 812.019531 475.988281 811.980469 476.25 811.992188 476.515625 C 812.007812 476.785156 812.070312 477.039062 812.1875 477.277344 C 812.300781 477.519531 812.460938 477.730469 812.660156 477.90625 C 826.886719 490.167969 842.757812 499.566406 860.273438 506.109375 C 884.128906 515.042969 909.960938 514.070312 937.765625 503.1875 C 937.871094 503.140625 937.964844 503.152344 938.054688 503.222656 C 938.140625 503.292969 938.175781 503.382812 938.152344 503.492188 C 937.785156 506.15625 936.5 508.417969 934.292969 510.273438 C 910.390625 530.425781 878.027344 531.945312 849.492188 522.902344 C 819.636719 513.445312 798.023438 491.113281 765.433594 488.21875 C 765.273438 488.207031 765.132812 488.148438 765.007812 488.042969 C 764.886719 487.9375 764.804688 487.804688 764.765625 487.648438 C 764.730469 487.492188 764.742188 487.339844 764.804688 487.1875 C 764.867188 487.039062 764.964844 486.921875 765.105469 486.839844 C 784.878906 474.121094 802.515625 458.792969 818.007812 440.851562 C 830.386719 426.488281 852.222656 409.09375 869.839844 404.625 C 914.25 393.351562 923.789062 445.207031 951.359375 464.644531 C 958.140625 469.441406 965.859375 472.878906 974.515625 474.957031 C 974.835938 475.019531 975.09375 475.175781 975.292969 475.429688 C 975.492188 475.6875 975.582031 475.976562 975.566406 476.300781 C 975.546875 476.621094 975.425781 476.898438 975.203125 477.132812 C 974.976562 477.363281 974.703125 477.496094 974.378906 477.519531 C 967.488281 478.429688 960.261719 480.828125 954.003906 480.910156 C 923.347656 481.296875 920.757812 452.101562 901.128906 436.523438 C 871.410156 412.953125 830.992188 455.683594 812.523438 475.066406 Z M 812.523438 475.066406 " fill-opacity="1" fill-rule="nonzero"/><path fill="currentColor" d="M 395.519531 516.726562 C 396.640625 512.496094 397.78125 508.269531 398.9375 504.042969 C 398.984375 503.832031 399.09375 503.664062 399.269531 503.542969 C 399.441406 503.417969 399.636719 503.367188 399.851562 503.390625 C 400.066406 503.417969 400.25 503.507812 400.402344 503.667969 C 400.554688 503.828125 400.632812 504.019531 400.648438 504.234375 C 401.886719 522.292969 398.332031 540.601562 398.277344 557.445312 C 398.191406 579.585938 395.296875 602.769531 395.324219 623.226562 C 395.34375 640.355469 395.34375 657.359375 395.324219 674.230469 C 395.316406 674.382812 395.261719 674.519531 395.160156 674.632812 C 395.054688 674.746094 394.929688 674.816406 394.777344 674.84375 C 394.628906 674.867188 394.484375 674.84375 394.351562 674.773438 C 394.214844 674.699219 394.117188 674.59375 394.058594 674.453125 C 377.5 625.195312 376.808594 575.851562 391.988281 526.429688 C 392.046875 526.265625 392.285156 525.125 392.707031 523.011719 C 393.203125 520.558594 394.886719 519.125 395.519531 516.726562 Z M 395.519531 516.726562 " fill-opacity="1" fill-rule="nonzero"/><path fill="currentColor" d="M 368.695312 800.308594 C 369.335938 800.953125 369.761719 801.503906 369.960938 801.960938 C 370.054688 802.199219 370.070312 802.445312 370.003906 802.691406 C 369.9375 802.941406 369.808594 803.144531 369.609375 803.304688 C 369.410156 803.464844 369.1875 803.546875 368.9375 803.554688 C 368.683594 803.5625 368.457031 803.488281 368.253906 803.339844 C 329.511719 776.414062 297.6875 743.496094 272.78125 704.585938 C 265.246094 692.785156 255.847656 675.519531 244.582031 652.78125 C 224.925781 613.136719 196.28125 586.449219 160.359375 561.664062 C 159.933594 561.371094 159.605469 561.019531 159.367188 560.617188 C 159.015625 560.046875 158.785156 559.605469 158.675781 559.292969 C 158.507812 558.851562 158.578125 558.453125 158.882812 558.089844 C 159.191406 557.726562 159.582031 557.585938 160.054688 557.667969 C 266.496094 576.660156 310.992188 665.710938 347.136719 756.085938 C 353.3125 771.46875 360.121094 784.757812 367.480469 798.765625 C 367.757812 799.277344 368.160156 799.792969 368.695312 800.308594 Z M 368.695312 800.308594 " fill-opacity="1" fill-rule="nonzero"/><path fill="currentColor" d="M 565.203125 1283.277344 C 557.816406 1276.421875 550.105469 1268.039062 542.074219 1258.132812 C 478.554688 1179.640625 445.085938 1084.25 436.101562 984.28125 C 436.089844 984.132812 436.125 983.996094 436.207031 983.875 C 436.292969 983.75 436.40625 983.667969 436.546875 983.625 C 436.691406 983.582031 436.832031 983.589844 436.96875 983.644531 C 437.105469 983.699219 437.210938 983.792969 437.285156 983.921875 C 492.890625 1078.351562 541.824219 1174.210938 566.335938 1282.613281 C 566.648438 1284.046875 566.269531 1284.269531 565.203125 1283.277344 Z M 565.203125 1283.277344 " fill-opacity="1" fill-rule="nonzero"/><g fill="currentColor" fill-opacity="1"><g transform="translate(982.306833, 1199.978781)"><g><path d="M 41.234375 1.421875 C 28.503906 1.421875 18.6875 -1.8125 11.78125 -8.28125 C 4.875 -14.75 1.421875 -25.09375 1.421875 -39.3125 C 1.421875 -66.46875 14.625 -80.046875 41.03125 -80.046875 C 47.4375 -80.046875 53.382812 -79.269531 58.875 -77.71875 C 64.363281 -76.175781 68.457031 -74.460938 71.15625 -72.578125 L 71.15625 -47.296875 L 46.90625 -47.296875 L 46.90625 -54.578125 C 46.90625 -57.140625 46.332031 -59.023438 45.1875 -60.234375 C 44.039062 -61.453125 42.320312 -62.0625 40.03125 -62.0625 C 37.738281 -62.0625 36.019531 -61.453125 34.875 -60.234375 C 33.726562 -59.023438 33.15625 -57.140625 33.15625 -54.578125 L 33.15625 -24.0625 C 33.15625 -21.5 33.726562 -19.609375 34.875 -18.390625 C 36.019531 -17.179688 37.738281 -16.578125 40.03125 -16.578125 C 42.320312 -16.578125 44.039062 -17.179688 45.1875 -18.390625 C 46.332031 -19.609375 46.90625 -21.5 46.90625 -24.0625 L 46.90625 -32.25 L 71.15625 -32.25 L 71.15625 -6.0625 C 68.394531 -4.175781 64.300781 -2.457031 58.875 -0.90625 C 53.445312 0.644531 47.566406 1.421875 41.234375 1.421875 Z M 41.234375 1.421875 "/></g></g></g><g fill="currentColor" fill-opacity="1"><g transform="translate(1056.293309, 1199.978781)"><g><path d="M 76.21875 -16.578125 L 80.25 -16.578125 L 80.25 0 L 40.640625 0 L 40.640625 -16.578125 L 46.703125 -16.578125 L 45.078125 -24.65625 L 31.328125 -24.65625 L 29.71875 -16.578125 L 35.78125 -16.578125 L 35.78125 0 L 1.21875 0 L 1.21875 -16.578125 L 5.25 -16.578125 L 22.34375 -78.640625 L 59.125 -78.640625 Z M 33.5625 -35.375 L 42.859375 -35.375 L 38.71875 -55.484375 L 37.703125 -55.484375 Z M 33.5625 -35.375 "/></g></g></g><g fill="currentColor" fill-opacity="1"><g transform="translate(1138.770019, 1199.978781)"><g><path d="M 60.25 -78.640625 L 93.390625 -78.640625 L 93.390625 -62.0625 L 88.34375 -62.0625 L 88.34375 0 L 59.9375 0 L 30.328125 -45.59375 L 30.328125 -16.578125 L 35.171875 -16.578125 L 35.171875 0 L 2.015625 0 L 2.015625 -16.578125 L 7.078125 -16.578125 L 7.078125 -62.0625 L 2.015625 -62.0625 L 2.015625 -78.640625 L 38.515625 -78.640625 L 65.09375 -38.109375 L 65.09375 -62.0625 L 60.25 -62.0625 Z M 60.25 -78.640625 "/></g></g></g><g fill="currentColor" fill-opacity="1"><g transform="translate(1234.992815, 1199.978781)"><g><path d="M 2.015625 0 L 2.015625 -16.578125 L 7.078125 -16.578125 L 7.078125 -62.0625 L 2.015625 -62.0625 L 2.015625 -78.640625 L 40.4375 -78.640625 L 40.4375 -62.0625 L 35.375 -62.0625 L 35.375 -16.578125 L 40.4375 -16.578125 L 40.4375 0 Z M 2.015625 0 "/></g></g></g><g fill="currentColor" fill-opacity="1"><g transform="translate(1278.454885, 1199.978781)"><g><path d="M 60.25 -78.640625 L 93.390625 -78.640625 L 93.390625 -62.0625 L 88.34375 -62.0625 L 88.34375 0 L 59.9375 0 L 30.328125 -45.59375 L 30.328125 -16.578125 L 35.171875 -16.578125 L 35.171875 0 L 2.015625 0 L 2.015625 -16.578125 L 7.078125 -16.578125 L 7.078125 -62.0625 L 2.015625 -62.0625 L 2.015625 -78.640625 L 38.515625 -78.640625 L 65.09375 -38.109375 L 65.09375 -62.0625 L 60.25 -62.0625 Z M 60.25 -78.640625 "/></g></g></g><g fill="currentColor" fill-opacity="1"><g transform="translate(1374.677694, 1199.978781)"><g><path d="M 2.015625 0 L 2.015625 -16.578125 L 7.078125 -16.578125 L 7.078125 -62.0625 L 2.015625 -62.0625 L 2.015625 -78.640625 L 70.25 -78.640625 L 70.25 -48.109375 L 47.609375 -48.109375 L 47.609375 -62.0625 L 35.375 -62.0625 L 35.375 -46.09375 L 44.265625 -46.09375 L 44.265625 -34.5625 L 35.375 -34.5625 L 35.375 -16.578125 L 47.609375 -16.578125 L 47.609375 -32.546875 L 70.25 -32.546875 L 70.25 0 Z M 2.015625 0 "/></g></g></g><g fill="currentColor" fill-opacity="1"><g transform="translate(1092.381046, 1297.478772)"><g><path d="M 44.46875 -78.640625 L 78.234375 -78.640625 L 78.234375 -62.0625 L 74.1875 -62.0625 L 56.09375 0 L 23.34375 0 L 5.25 -62.0625 L 1.21875 -62.0625 L 1.21875 -78.640625 L 40.03125 -78.640625 L 40.03125 -62.0625 L 34.765625 -62.0625 L 41.75 -28.203125 L 42.75 -28.203125 L 49.734375 -62.0625 L 44.46875 -62.0625 Z M 44.46875 -78.640625 "/></g></g></g><g fill="currentColor" fill-opacity="1"><g transform="translate(1172.836271, 1297.478772)"><g><path d="M 2.015625 0 L 2.015625 -16.578125 L 7.078125 -16.578125 L 7.078125 -62.0625 L 2.015625 -62.0625 L 2.015625 -78.640625 L 40.4375 -78.640625 L 40.4375 -62.0625 L 35.375 -62.0625 L 35.375 -16.578125 L 40.4375 -16.578125 L 40.4375 0 Z M 2.015625 0 "/></g></g></g><g fill="currentColor" fill-opacity="1"><g transform="translate(1216.298336, 1297.478772)"><g><path d="M 33.359375 1.421875 C 26.890625 1.421875 20.773438 0.863281 15.015625 -0.25 C 9.253906 -1.363281 4.820312 -2.628906 1.71875 -4.046875 L 1.71875 -24.0625 L 23.953125 -24.0625 C 23.953125 -21.96875 24.421875 -20.445312 25.359375 -19.5 C 26.304688 -18.5625 28.03125 -18.09375 30.53125 -18.09375 C 32.613281 -18.09375 34.109375 -18.410156 35.015625 -19.046875 C 35.929688 -19.691406 36.390625 -20.65625 36.390625 -21.9375 C 36.390625 -23.007812 35.953125 -23.929688 35.078125 -24.703125 C 34.203125 -25.484375 32.6875 -26.28125 30.53125 -27.09375 L 21.828125 -30.125 C 14.347656 -32.945312 8.972656 -36.28125 5.703125 -40.125 C 2.441406 -43.96875 0.8125 -49.15625 0.8125 -55.6875 C 0.8125 -63.644531 3.421875 -69.691406 8.640625 -73.828125 C 13.859375 -77.972656 22.566406 -80.046875 34.765625 -80.046875 C 40.628906 -80.046875 46.140625 -79.457031 51.296875 -78.28125 C 56.453125 -77.101562 60.613281 -75.535156 63.78125 -73.578125 L 63.78125 -55.484375 L 43.5625 -55.484375 C 43.5625 -58.859375 41.472656 -60.546875 37.296875 -60.546875 C 35.273438 -60.546875 33.84375 -60.289062 33 -59.78125 C 32.15625 -59.28125 31.734375 -58.390625 31.734375 -57.109375 C 31.734375 -55.960938 32.222656 -55.050781 33.203125 -54.375 C 34.179688 -53.707031 35.78125 -53 38 -52.25 L 46.796875 -49.21875 C 53.941406 -46.800781 59.144531 -43.65625 62.40625 -39.78125 C 65.675781 -35.90625 67.3125 -30.832031 67.3125 -24.5625 C 67.3125 -16 64.429688 -9.523438 58.671875 -5.140625 C 52.910156 -0.765625 44.472656 1.421875 33.359375 1.421875 Z M 33.359375 1.421875 "/></g></g></g><g fill="currentColor" fill-opacity="1"><g transform="translate(1285.433245, 1297.478772)"><g><path d="M 77.421875 -54.171875 L 60.046875 -54.171875 L 60.046875 -62.0625 L 53.578125 -62.0625 L 53.578125 -16.578125 L 60.640625 -16.578125 L 60.640625 0 L 18.1875 0 L 18.1875 -16.578125 L 25.265625 -16.578125 L 25.265625 -62.0625 L 18.796875 -62.0625 L 18.796875 -54.171875 L 1.421875 -54.171875 L 1.421875 -78.640625 L 77.421875 -78.640625 Z M 77.421875 -54.171875 "/></g></g></g><g fill="currentColor" fill-opacity="1"><g transform="translate(1365.282031, 1297.478772)"><g><path d="M 76.21875 -16.578125 L 80.25 -16.578125 L 80.25 0 L 40.640625 0 L 40.640625 -16.578125 L 46.703125 -16.578125 L 45.078125 -24.65625 L 31.328125 -24.65625 L 29.71875 -16.578125 L 35.78125 -16.578125 L 35.78125 0 L 1.21875 0 L 1.21875 -16.578125 L 5.25 -16.578125 L 22.34375 -78.640625 L 59.125 -78.640625 Z M 33.5625 -35.375 L 42.859375 -35.375 L 38.71875 -55.484375 L 37.703125 -55.484375 Z M 33.5625 -35.375 "/></g></g></g></svg>